# AST/ASF file generated using VICON BodyLanguage
# -----------------------------------------------
:version 1.10
:name VICON
:units
  mass 1.0
  length 0.45
  angle deg
:documentation
   .ast/.asf automatically generated from VICON data using
   VICON BodyBuilder and BodyLanguage model FoxedUp or BRILLIANT.MOD
:root
   order TX TY TZ RX RY RZ
   axis XYZ
   position 0 0 0  
   orientation 0 -0 0 
:bonedata
  begin
     id 1 
     name lhipjoint
     direction 0.432694 -0.693742 0.575759 
     length 2.19277 
     axis 0 -0 0  XYZ
  end
  begin
     id 2 
     name lfemur
     direction 0.34202 -0.939693 0  
     length 6.69022  
     axis 0 -0 20  XYZ
    dof rx ry rz
    limits (-160.0 20.0)
           (-70.0 70.0)
           (-60.0 70.0)
  end
  begin
     id 3 
     name ltibia
     direction 0.34202 -0.939693 0   
     length 6.50337   
     axis 0 -0 20   XYZ
    dof rx
    limits (-10.0 170.0)
  end
  begin
     id 4 
     name lfoot
     direction 0.158999 -0.435969 0.885805   
     length 2.70564   
     axis -90 -1.13533e-015 20   XYZ
    dof rx rz
    limits (-45.0 90.0)
           (-70.0 20.0)
  end
  begin
     id 5 
     name ltoes
     direction -0.00592919 0.00964381 0.999936   
     length 1.29929   
     axis -90 -1.13533e-015 20   XYZ
    dof rx
    limits (-90.0 20.0)
  end
  begin
     id 6 
     name rhipjoint
     direction -0.414359 -0.700339 0.581234   
     length 2.17212  
     axis 0 -0 0  XYZ 
  end
  begin
     id 7 
     name rfemur
     direction -0.34202 -0.939693 0   
     length 7.17659   
     axis 0 -0 -20   XYZ
    dof rx ry rz
    limits (-160.0 20.0)
           (-70.0 70.0)
           (-70.0 60.0)
  end
  begin
     id 8 
     name rtibia
     direction -0.34202 -0.939693 0   
     length 6.36669   
     axis 0 -0 -20   XYZ
    dof rx
    limits (-10.0 170.0)
 end
 begin
     id 9 
     name rfoot
     direction -0.137064 -0.37658 0.916188   
     length 2.22351  
     axis -90 1.13533e-015 -20   XYZ
    dof rx rz
    limits (-45.0 90.0)
           (-20.0 70.0)
  end
  begin
     id 10 
     name rtoes
     direction -0.000784077 -0.00289101 0.999996   
     length 1.09522   
     axis -90 1.13533e-015 -20   XYZ
    dof rx
    limits (-90.0 20.0)
  end
  begin
     id 11 
     name lowerback
     direction -0.0176242 0.984912 -0.172157   
     length 1.65301   
     axis 0 -0 0   XYZ
    dof rx ry rz
    limits (-20.0 45.0)
           (-30.0 30.0)
           (-30.0 30.0)
  end
  begin
     id 12 
     name upperback
     direction -0.00218128 0.998776 -0.0494072   
     length 1.67776   
     axis 0 -0 0   XYZ
    dof rx ry rz
    limits (-20.0 45.0)
           (-30.0 30.0)
           (-30.0 30.0)
  end
  begin
     id 13 
     name thorax
     direction 0.00544186 0.999658 0.0255711   
     length 1.72293   
     axis 0 -0 0   XYZ
    dof rx ry rz
    limits (-20.0 45.0)
           (-30.0 30.0)
           (-30.0 30.0)
  end
  begin
     id 14 
     name lowerneck
     direction -0.105325 0.983841 0.144785   
     length 2.14226   
     axis 0 -0 0   XYZ
    dof rx ry rz
    limits (-20.0 45.0)
           (-30.0 30.0)
           (-30.0 30.0)
  end
  begin
     id 15 
     name upperneck
     direction 0.0547957 0.988053 -0.144041   
     length 2.17508   
     axis 0 -0 0   XYZ
    dof rx ry rz
    limits (-20.0 45.0)
           (-30.0 30.0)
           (-30.0 30.0)
  end
  begin
     id 16
     name head
     direction 0.0247488 0.997534 -0.0656813  
     length 2.20048  
     axis 0 -0 0   XYZ
    dof rx ry rz
    limits (-20.0 45.0)
           (-30.0 30.0)
           (-30.0 30.0)
  end
  begin
     id 17 
     name lclavicle
     direction 0.820559 0.567247 -0.0701026  
     length 4.09615  
     axis 0 -0 0   XYZ
    dof ry rz
    limits (-20.0 10.0)
           (0.0 20.0)
  end
  begin
     id 18 
     name lhumerus
     direction 0.999977 -0.0067566 -9.96392e-005   
     length 4.59333   
     axis -180 -30 -90   XYZ
    dof rx ry rz
    limits (-60.0 90.0)
           (-90.0 90.0)
           (-90.0 90.0)
  end
  begin
     id 19
     name lradius
     direction 1 -4.48982e-011 -2.53425e-027   
     length 2.81151   
     axis -180 -30 -90   XYZ
    dof rx
    limits (-10.0 170.0)
  end
  begin
     id 20
     name lwrist
     direction 1 -4.48939e-011 -7.39254e-028   
     length 1.40576   
     axis 2.56395e-016 90 90   XYZ
    dof ry
    limits (-180.0 0.0)
 end
  begin
     id 21 
     name lhand
     direction 1 -4.48939e-011 -1.47851e-027   
     length 0.895651   
     axis 9.43423e-016 90 90   XYZ
    dof rx rz
    limits (-90.0 90.0)
           (-45.0 45.0)
  end
  begin
     id 22 
     name lfingers
     direction 1 -4.48978e-011 -2.95702e-027   
     length 0.722097   
     axis 1.88685e-015 90 90   XYZ
    dof rx
    limits (0.0 90.0)
  end
  begin
     id 23
     name lthumb
     direction 0.707107 -6.34931e-011 0.707107   
     length 1.03679   
     axis -90 45 -9.86935e-015   XYZ
    dof rx rz
    limits (-45.0 45.0)
           (-45.0 45.0)
  end
  begin
     id 24 
     name rclavicle
     direction -0.831414 0.553102 -0.0531864   
     length 4.24872  
     axis 0 -0 0   XYZ 
    dof ry rz
    limits (-10.0 20.0)
           (-20.0 0.0)
  end
  begin
     id 25 
     name rhumerus
     direction -0.999916 -0.000939607 0.0129331  
     length 4.74834   
     axis -180 30 90   XYZ
    dof rx ry rz
    limits (-90.0 60.0)
           (-90.0 90.0)
           (-90.0 90.0)
  end
  begin
     id 26 
     name rradius
     direction -1 -4.48956e-011 -1.31752e-027   
     length 2.79907   
     axis -180 30 90   XYZ
    dof rx
    limits (-10.0 170.0)
  end
  begin
     id 27 
     name rwrist
     direction -1 -4.4897e-011 -7.39254e-028   
     length 1.39954   
     axis 2.56395e-016 -90 -90   XYZ
    dof ry
    limits (-180.0 0.0)
  end
  begin
     id 28
     name rhand
     direction -0.999997 -0.00250697 0.000800838   
     length 0.953304   
     axis 9.43423e-016 -90 -90   XYZ
    dof rx rz
    limits (-90.0 90.0)
           (-45.0 45.0)
  end
  begin
     id 29
     name rfingers
     direction -1 -4.48954e-011 -2.95702e-027   
     length 0.763342   
     axis 1.88685e-015 -90 -90   XYZ
    dof rx
    limits (0.0 90.0)
  end
  begin
     id 30
     name rthumb
     direction -0.709701 -0.00217037 0.7045   
     length 1.10115   
     axis -90 -45 9.86935e-015   XYZ
    dof rx rz
    limits (-45.0 45.0)
           (-45.0 45.0)
  end
:hierarchy
  begin
    root lhipjoint rhipjoint lowerback
    lhipjoint lfemur
    lfemur ltibia
    ltibia lfoot
    lfoot ltoes
    rhipjoint rfemur
    rfemur rtibia
    rtibia rfoot
    rfoot rtoes
    lowerback upperback
    upperback thorax
    thorax lowerneck lclavicle rclavicle
    lowerneck upperneck
    upperneck head
    lclavicle lhumerus
    lhumerus lradius
    lradius lwrist
    lwrist lhand lthumb
    lhand lfingers
    rclavicle rhumerus
    rhumerus rradius
    rradius rwrist
    rwrist rhand rthumb
    rhand rfingers
  end

#!OML:ASF G:\ViconDB\ViconDB\414\test\team2\shane.ASF
:FULLY-SPECIFIED
:DEGREES
34
root 6.21671 16.2663 -11.9525 12.2597 -2.39414 -2.46292
lowerback 15.8761 5.31664 1.4017
upperback 7.6882 7.09233 -0.895013
thorax -0.388271 3.57809 -2.82079
lowerneck -16.1556 -6.81977 -5.25627
upperneck 7.54688 -9.29821 10.4174
head 5.66461 -3.97405 3.21458
rclavicle -3.29983e-014 1.94809e-014
rhumerus -4.27165 19.7842 -82.831
rradius 93.8294
rwrist -327.618
rhand -43.0539 -21.7793
rfingers 7.12502
rthumb -15.9102 -51.1457
lclavicle -1.56245e-013 4.13472e-014
lhumerus -55.082 -28.3542 85.9021
lradius 36.0465
lwrist -14.9662
lhand -48.1386 7.37781
lfingers 7.12502
lthumb -20.8015 36.2828
rfemur 29.6135 -4.04435 15.0662
rtibia -1.27222e-014
rfoot 25.0886 -3.61763
rtoes -17.3478
lfemur -57.0771 9.78858 -17.4615
ltibia 60.1859
lfoot -24.8653 -12.5205
ltoes -16.7215
35
root 6.25319 16.3786 -11.3675 11.9863 -1.30254 -2.83175
lowerback 15.2688 4.9917 2.13154
upperback 7.61191 6.77252 -0.906923
thorax -0.0813546 3.44742 -3.13
lowerneck -16.3466 -6.85831 -5.24411
upperneck 7.73209 -9.39809 10.6796
head 5.77717 -3.9913 3.27815
rclavicle -3.37934e-015 9.93923e-015
rhumerus -7.90023 21.4017 -83.0364
rradius 91.6781
rwrist -328.385
rhand -43.1273 -20.9303
rfingers 7.12502
rthumb -15.9809 -50.2911
lclavicle -1.56245e-013 4.13472e-014
lhumerus -55.082 -28.3542 85.9021
lradius 36.0465
lwrist -14.9662
lhand -48.1386 7.37781
lfingers 7.12502
lthumb -20.8015 36.2828
rfemur 30.9163 -3.93669 15.8124
rtibia -3.81667e-014
rfoot 29.2748 -3.70928
rtoes -4.75046
lfemur -56.5524 10.3663 -18.2479
ltibia 55.1422
lfoot -22.5046 -13.4424
ltoes -18.015
36
root 6.2772 16.4579 -10.7869 11.6174 -0.829973 -3.33403
lowerback 14.5789 4.92055 2.35881
upperback 7.60465 6.70868 -0.768152
thorax 0.278251 3.42766 -3.03435
lowerneck -16.4109 -6.9055 -5.55935
upperneck 7.79611 -9.47198 11.2346
head 5.86166 -3.99239 3.49355
rclavicle -4.17448e-015 1.07344e-014
rhumerus -11.4814 23.4906 -83.5477
rradius 89.2595
rwrist -329.558
rhand -43.3986 -20.5852
rfingers 7.12502
rthumb -16.2422 -49.9248
lclavicle -1.56245e-013 4.13472e-014
lhumerus -55.082 -28.3542 85.9021
lradius 36.0465
lwrist -14.9662
lhand -48.1386 7.37781
lfingers 7.12502
lthumb -20.8015 36.2828
rfemur 32.2069 -3.3424 16.8502
rtibia 0
rfoot 30.3688 -3.56178
rtoes -0.568672
lfemur -55.9581 12.2296 -19.3964
ltibia 51.1677
lfoot -20.0295 -14.1546
ltoes -19.1485
37
root 6.30909 16.5008 -10.222 10.9306 0.0440306 -3.70445
lowerback 14.3532 4.641 2.85769
upperback 7.64337 6.40644 -0.747752
thorax 0.472596 3.29841 -3.22529
lowerneck -16.6854 -6.90526 -5.44341
upperneck 8.07795 -9.55151 11.4963
head 6.01348 -3.98906 3.54109
rclavicle 3.06128e-014 -1.45113e-014
rhumerus -14.9876 25.1948 -84.3574
rradius 86.356
rwrist -329.313
rhand -43.6744 -20.8386
rfingers 7.12502
rthumb -16.5077 -50.1564
lclavicle -1.56245e-013 4.13472e-014
lhumerus -55.082 -28.3542 85.9021
lradius 36.0465
lwrist -14.9662
lhand -48.1386 7.37781
lfingers 7.12502
lthumb -20.8015 36.2828
rfemur 30.178 -3.24669 17.9136
rtibia 7.98774
rfoot 25.2437 -4.4872
rtoes -4.4129
lfemur -55.1109 13.7728 -20.6052
ltibia 48.4514
lfoot -17.5995 -14.0893
ltoes -18.6051
38
root 6.33571 16.5135 -9.66383 10.1614 0.645309 -3.9807
lowerback 14.2383 4.44217 3.0001
upperback 7.66725 6.16548 -0.746807
thorax 0.555788 3.18655 -3.26177
lowerneck -16.7414 -6.95507 -5.48457
upperneck 8.20135 -9.69577 12.03
head 6.10973 -4.01394 3.69876
rclavicle -5.52621e-014 -2.98177e-016
rhumerus -18.4926 27.0374 -85.4135
rradius 83.5798
rwrist -330.079
rhand -43.5681 -20.2709
rfingers 7.12502
rthumb -16.4054 -49.5971
lclavicle -1.56245e-013 4.13472e-014
lhumerus -55.082 -28.3542 85.9021
lradius 36.0465
lwrist -14.9662
lhand -48.1386 7.37781
lfingers 7.12502
lthumb -20.8015 36.2828
rfemur 27.5714 -2.86317 18.7211
rtibia 17.3331
rfoot 19.945 -7.01092
rtoes -6.07307
lfemur -54.069 15.3532 -21.5583
ltibia 46.8588
lfoot -15.7283 -13.8392
ltoes -19.4734
